# xmcd
#
# Track frame offsets:
#	150
#	13550
#	32295
#	46047
#	64835
#	80530
#	98262
#	116987
#	132760
#	152635
#	168667
#	182375
#
# Disc length: 2631 seconds
#
# Revision: 1
# Processed by: cddbd v1.5.1PL0 Copyright (c) Steve Scherf et al.
# Submitted via: audiograbber 1.83.01
#
DISCID=850a450c
DTITLE=Lonesome and Blue - Out Of The Blue
DYEAR=1998
DGENRE=Bluegrass
TTITLE0=Lonesome Without You
TTITLE1=Snooky
TTITLE2=Why Don't You Tell Me So
TTITLE3=Just An Exile
TTITLE4=Another Town
TTITLE5=Out Of The Blue
TTITLE6=This Heart Of MIne
TTITLE7=Can't You Hear Me Callin'
TTITLE8=Frozec Inside
TTITLE9=Waiting For Patti
TTITLE10=Heart Like A Wheel
TTITLE11=Dreams About You Darlin'
EXTD=
EXTT0=
EXTT1=
EXTT2=
EXTT3=
EXTT4=
EXTT5=
EXTT6=
EXTT7=
EXTT8=
EXTT9=
EXTT10=
EXTT11=
PLAYORDER=
